<svg width="576" height="494" viewBox="0 0 576 494" fill="none" xmlns="http://www.w3.org/2000/svg">
<path d="M256 82.5812V418.545C256 439.983 230.057 450.543 215.029 435.516L126.059 346.564H24C10.745 346.564 0 335.819 0 322.564V178.564C0 165.309 10.745 154.564 24 154.564H126.059L215.03 65.6102C230.04 50.6002 256 61.1202 256 82.5812ZM438.056 4.70524C422.982 -4.51576 403.283 0.232242 394.061 15.3092C384.84 30.3862 389.588 50.0832 404.665 59.3042C468.967 98.6272 512 169.547 512 250.564C512 323.995 475.923 392.856 415.493 434.77C400.971 444.842 397.364 464.78 407.436 479.302C417.512 493.83 437.452 497.428 451.967 487.359C529.633 433.491 576 344.97 576 250.564C576 147.32 521.421 55.6872 438.056 4.70524ZM480 250.564C480 182.017 443.85 120.787 388.043 86.6632C372.967 77.4432 353.269 82.1922 344.049 97.2702C334.829 112.348 339.578 132.044 354.656 141.264C393.067 164.752 416 205.612 416 250.564C416 292.528 395.38 331.883 360.842 355.84C346.321 365.913 342.714 385.85 352.786 400.372C359.002 409.332 368.971 414.137 379.108 414.137C385.619 414.139 391.974 412.147 397.318 408.428C449.091 372.517 480 313.502 480 250.564ZM384 250.564C384 216.847 366.814 186.214 338.028 168.62C322.949 159.406 303.253 164.157 294.036 179.236C284.819 194.315 289.572 214.011 304.651 223.228C314.263 229.102 320 239.321 320 250.564C319.997 255.742 318.74 260.841 316.336 265.427C313.933 270.013 310.454 273.948 306.198 276.896C291.674 286.965 288.062 306.902 298.131 321.426C308.201 335.951 328.139 339.562 342.661 329.493C368.546 311.547 384 282.042 384 250.564Z" fill="black"/>
</svg>
