<svg width="576" height="576" viewBox="0 0 545 549" fill="none" xmlns="http://www.w3.org/2000/svg">
<path d="M230.897 121.667C233.809 123.066 236.267 125.255 237.987 127.983C239.708 130.711 240.623 133.867 240.626 137.09V411.27C240.621 414.494 239.704 417.652 237.98 420.38C236.256 423.109 233.795 425.296 230.879 426.692C227.964 428.088 224.713 428.636 221.499 428.272C218.286 427.909 215.24 426.648 212.713 424.636L131.485 359.861H51.5625C47.0041 359.861 42.6324 358.056 39.4091 354.842C36.1858 351.628 34.375 347.27 34.375 342.725V205.635C34.375 201.09 36.1858 196.731 39.4091 193.518C42.6324 190.304 47.0041 188.499 51.5625 188.499H131.485L212.713 123.724C215.242 121.708 218.291 120.446 221.508 120.082C224.725 119.718 227.98 120.268 230.897 121.667V121.667ZM476.232 193.502C477.833 195.094 479.103 196.985 479.969 199.067C480.836 201.149 481.282 203.381 481.282 205.635C481.282 207.889 480.836 210.121 479.969 212.203C479.103 214.285 477.833 216.176 476.232 217.767L419.617 274.18L476.232 330.592C479.46 333.81 481.273 338.174 481.273 342.725C481.273 347.275 479.46 351.64 476.232 354.857C473.005 358.075 468.628 359.883 464.064 359.883C459.499 359.883 455.122 358.075 451.895 354.857L395.313 298.411L338.732 354.857C335.505 358.075 331.127 359.883 326.563 359.883C321.999 359.883 317.622 358.075 314.394 354.857C311.167 351.64 309.354 347.275 309.354 342.725C309.354 338.174 311.167 333.81 314.394 330.592L371.01 274.18L314.394 217.767C312.796 216.174 311.529 214.283 310.664 212.201C309.799 210.119 309.354 207.888 309.354 205.635C309.354 203.382 309.799 201.151 310.664 199.069C311.529 196.987 312.796 195.096 314.394 193.502C317.622 190.285 321.999 188.477 326.563 188.477C328.823 188.477 331.061 188.921 333.149 189.783C335.237 190.645 337.134 191.909 338.732 193.502L395.313 249.949L451.895 193.502C453.491 191.907 455.388 190.641 457.476 189.777C459.564 188.913 461.803 188.468 464.064 188.468C466.324 188.468 468.563 188.913 470.651 189.777C472.739 190.641 474.636 191.907 476.232 193.502V193.502Z" fill="black"/>
</svg>
